solid object
solid object
facet normal 0.000000 -0.000000 -24.000000
outer loop
	vertex -12.000000 0.000000 0.000000
	vertex -10.000000 2.000000 0.000000
	vertex 0.000000 0.000000 0.000000
	endloop
endfacet
facet normal 0.000000 0.000000 -8.000000
outer loop
	vertex -10.000000 2.000000 0.000000
	vertex -11.000000 3.000000 0.000000
	vertex 0.000000 0.000000 0.000000
	endloop
endfacet
facet normal 0.000000 -0.000000 -31.000000
outer loop
	vertex -11.000000 3.000000 0.000000
	vertex -8.000000 5.000000 0.000000
	vertex 0.000000 0.000000 0.000000
	endloop
endfacet
facet normal 0.000000 -0.000000 -29.000000
outer loop
	vertex -8.000000 5.000000 0.000000
	vertex -7.000000 8.000000 0.000000
	vertex 0.000000 0.000000 0.000000
	endloop
endfacet
facet normal 0.000000 0.000000 15.000000
outer loop
	vertex -7.000000 8.000000 0.000000
	vertex -8.000000 7.000000 0.000000
	vertex 0.000000 0.000000 0.000000
	endloop
endfacet
facet normal 0.000000 0.000000 -17.000000
outer loop
	vertex -8.000000 7.000000 0.000000
	vertex -9.000000 10.000000 0.000000
	vertex 0.000000 0.000000 0.000000
	endloop
endfacet
facet normal 0.000000 -0.000000 -170.000000
outer loop
	vertex -9.000000 10.000000 0.000000
	vertex 8.000000 10.000000 0.000000
	vertex 0.000000 0.000000 0.000000
	endloop
endfacet
facet normal 0.000000 -0.000000 -30.000000
outer loop
	vertex 8.000000 10.000000 0.000000
	vertex 11.000000 10.000000 0.000000
	vertex 0.000000 0.000000 0.000000
	endloop
endfacet
facet normal 0.000000 -0.000000 120.000000
outer loop
	vertex 11.000000 10.000000 0.000000
	vertex -12.000000 0.000000 0.000000
	vertex 0.000000 0.000000 0.000000
	endloop
endfacet
facet normal 2.000000 -2.000000 0.000000
outer loop
	vertex -12.000000 0.000000 0.000000
	vertex -10.000000 2.000000 0.000000
	vertex -12.000000 0.000000 1.000000
	endloop
endfacet
facet normal -2.000000 2.000000 0.000000
outer loop
	vertex -10.000000 2.000000 0.000000
	vertex -12.000000 0.000000 1.000000
	vertex -10.000000 2.000000 1.000000
	endloop
endfacet
facet normal 1.000000 1.000000 -0.000000
outer loop
	vertex -10.000000 2.000000 0.000000
	vertex -11.000000 3.000000 0.000000
	vertex -10.000000 2.000000 1.000000
	endloop
endfacet
facet normal -1.000000 -1.000000 0.000000
outer loop
	vertex -11.000000 3.000000 0.000000
	vertex -10.000000 2.000000 1.000000
	vertex -11.000000 3.000000 1.000000
	endloop
endfacet
facet normal 2.000000 -3.000000 0.000000
outer loop
	vertex -11.000000 3.000000 0.000000
	vertex -8.000000 5.000000 0.000000
	vertex -11.000000 3.000000 1.000000
	endloop
endfacet
facet normal -2.000000 3.000000 0.000000
outer loop
	vertex -8.000000 5.000000 0.000000
	vertex -11.000000 3.000000 1.000000
	vertex -8.000000 5.000000 1.000000
	endloop
endfacet
facet normal 3.000000 -1.000000 0.000000
outer loop
	vertex -8.000000 5.000000 0.000000
	vertex -7.000000 8.000000 0.000000
	vertex -8.000000 5.000000 1.000000
	endloop
endfacet
facet normal -3.000000 1.000000 0.000000
outer loop
	vertex -7.000000 8.000000 0.000000
	vertex -8.000000 5.000000 1.000000
	vertex -7.000000 8.000000 1.000000
	endloop
endfacet
facet normal -1.000000 1.000000 0.000000
outer loop
	vertex -7.000000 8.000000 0.000000
	vertex -8.000000 7.000000 0.000000
	vertex -7.000000 8.000000 1.000000
	endloop
endfacet
facet normal 1.000000 -1.000000 0.000000
outer loop
	vertex -8.000000 7.000000 0.000000
	vertex -7.000000 8.000000 1.000000
	vertex -8.000000 7.000000 1.000000
	endloop
endfacet
facet normal 3.000000 1.000000 -0.000000
outer loop
	vertex -8.000000 7.000000 0.000000
	vertex -9.000000 10.000000 0.000000
	vertex -8.000000 7.000000 1.000000
	endloop
endfacet
facet normal -3.000000 -1.000000 0.000000
outer loop
	vertex -9.000000 10.000000 0.000000
	vertex -8.000000 7.000000 1.000000
	vertex -9.000000 10.000000 1.000000
	endloop
endfacet
facet normal 0.000000 -17.000000 0.000000
outer loop
	vertex -9.000000 10.000000 0.000000
	vertex 8.000000 10.000000 0.000000
	vertex -9.000000 10.000000 1.000000
	endloop
endfacet
facet normal 0.000000 17.000000 -0.000000
outer loop
	vertex 8.000000 10.000000 0.000000
	vertex -9.000000 10.000000 1.000000
	vertex 8.000000 10.000000 1.000000
	endloop
endfacet
facet normal 0.000000 -3.000000 0.000000
outer loop
	vertex 8.000000 10.000000 0.000000
	vertex 11.000000 10.000000 0.000000
	vertex 8.000000 10.000000 1.000000
	endloop
endfacet
facet normal 0.000000 3.000000 -0.000000
outer loop
	vertex 11.000000 10.000000 0.000000
	vertex 8.000000 10.000000 1.000000
	vertex 11.000000 10.000000 1.000000
	endloop
endfacet
facet normal -10.000000 23.000000 0.000000
outer loop
	vertex 11.000000 10.000000 0.000000
	vertex -12.000000 0.000000 0.000000
	vertex 11.000000 10.000000 1.000000
	endloop
endfacet
facet normal 10.000000 -23.000000 0.000000
outer loop
	vertex -12.000000 0.000000 0.000000
	vertex 11.000000 10.000000 1.000000
	vertex -12.000000 0.000000 1.000000
	endloop
endfacet
facet normal 2.000000 -2.000000 0.000000
outer loop
	vertex -12.000000 0.000000 1.000000
	vertex -10.000000 2.000000 1.000000
	vertex -12.000000 0.000000 2.000000
	endloop
endfacet
facet normal -2.000000 2.000000 0.000000
outer loop
	vertex -10.000000 2.000000 1.000000
	vertex -12.000000 0.000000 2.000000
	vertex -10.000000 2.000000 2.000000
	endloop
endfacet
facet normal 1.000000 1.000000 -0.000000
outer loop
	vertex -10.000000 2.000000 1.000000
	vertex -11.000000 3.000000 1.000000
	vertex -10.000000 2.000000 2.000000
	endloop
endfacet
facet normal -1.000000 -1.000000 0.000000
outer loop
	vertex -11.000000 3.000000 1.000000
	vertex -10.000000 2.000000 2.000000
	vertex -11.000000 3.000000 2.000000
	endloop
endfacet
facet normal 2.000000 -3.000000 0.000000
outer loop
	vertex -11.000000 3.000000 1.000000
	vertex -8.000000 5.000000 1.000000
	vertex -11.000000 3.000000 2.000000
	endloop
endfacet
facet normal -2.000000 3.000000 0.000000
outer loop
	vertex -8.000000 5.000000 1.000000
	vertex -11.000000 3.000000 2.000000
	vertex -8.000000 5.000000 2.000000
	endloop
endfacet
facet normal 3.000000 -1.000000 0.000000
outer loop
	vertex -8.000000 5.000000 1.000000
	vertex -7.000000 8.000000 1.000000
	vertex -8.000000 5.000000 2.000000
	endloop
endfacet
facet normal -3.000000 1.000000 0.000000
outer loop
	vertex -7.000000 8.000000 1.000000
	vertex -8.000000 5.000000 2.000000
	vertex -7.000000 8.000000 2.000000
	endloop
endfacet
facet normal -1.000000 1.000000 0.000000
outer loop
	vertex -7.000000 8.000000 1.000000
	vertex -8.000000 7.000000 1.000000
	vertex -7.000000 8.000000 2.000000
	endloop
endfacet
facet normal 1.000000 -1.000000 0.000000
outer loop
	vertex -8.000000 7.000000 1.000000
	vertex -7.000000 8.000000 2.000000
	vertex -8.000000 7.000000 2.000000
	endloop
endfacet
facet normal 3.000000 1.000000 -0.000000
outer loop
	vertex -8.000000 7.000000 1.000000
	vertex -9.000000 10.000000 1.000000
	vertex -8.000000 7.000000 2.000000
	endloop
endfacet
facet normal -3.000000 -1.000000 0.000000
outer loop
	vertex -9.000000 10.000000 1.000000
	vertex -8.000000 7.000000 2.000000
	vertex -9.000000 10.000000 2.000000
	endloop
endfacet
facet normal 0.000000 -17.000000 0.000000
outer loop
	vertex -9.000000 10.000000 1.000000
	vertex 8.000000 10.000000 1.000000
	vertex -9.000000 10.000000 2.000000
	endloop
endfacet
facet normal 0.000000 17.000000 -0.000000
outer loop
	vertex 8.000000 10.000000 1.000000
	vertex -9.000000 10.000000 2.000000
	vertex 8.000000 10.000000 2.000000
	endloop
endfacet
facet normal 0.000000 -3.000000 0.000000
outer loop
	vertex 8.000000 10.000000 1.000000
	vertex 11.000000 10.000000 1.000000
	vertex 8.000000 10.000000 2.000000
	endloop
endfacet
facet normal 0.000000 3.000000 -0.000000
outer loop
	vertex 11.000000 10.000000 1.000000
	vertex 8.000000 10.000000 2.000000
	vertex 11.000000 10.000000 2.000000
	endloop
endfacet
facet normal -10.000000 23.000000 0.000000
outer loop
	vertex 11.000000 10.000000 1.000000
	vertex -12.000000 0.000000 1.000000
	vertex 11.000000 10.000000 2.000000
	endloop
endfacet
facet normal 10.000000 -23.000000 0.000000
outer loop
	vertex -12.000000 0.000000 1.000000
	vertex 11.000000 10.000000 2.000000
	vertex -12.000000 0.000000 2.000000
	endloop
endfacet
facet normal -4.000000 4.000000 -24.000000
outer loop
	vertex -12.000000 0.000000 2.000000
	vertex -10.000000 2.000000 2.000000
	vertex 0.000000 0.000000 0.000000
	endloop
endfacet
facet normal -2.000000 -2.000000 -8.000000
outer loop
	vertex -10.000000 2.000000 2.000000
	vertex -11.000000 3.000000 2.000000
	vertex 0.000000 0.000000 0.000000
	endloop
endfacet
facet normal -4.000000 6.000000 -31.000000
outer loop
	vertex -11.000000 3.000000 2.000000
	vertex -8.000000 5.000000 2.000000
	vertex 0.000000 0.000000 0.000000
	endloop
endfacet
facet normal -6.000000 2.000000 -29.000000
outer loop
	vertex -8.000000 5.000000 2.000000
	vertex -7.000000 8.000000 2.000000
	vertex 0.000000 0.000000 0.000000
	endloop
endfacet
facet normal 2.000000 -2.000000 15.000000
outer loop
	vertex -7.000000 8.000000 2.000000
	vertex -8.000000 7.000000 2.000000
	vertex 0.000000 0.000000 0.000000
	endloop
endfacet
facet normal -6.000000 -2.000000 -17.000000
outer loop
	vertex -8.000000 7.000000 2.000000
	vertex -9.000000 10.000000 2.000000
	vertex 0.000000 0.000000 0.000000
	endloop
endfacet
facet normal 0.000000 34.000000 -170.000000
outer loop
	vertex -9.000000 10.000000 2.000000
	vertex 8.000000 10.000000 2.000000
	vertex 0.000000 0.000000 0.000000
	endloop
endfacet
facet normal 0.000000 6.000000 -30.000000
outer loop
	vertex 8.000000 10.000000 2.000000
	vertex 11.000000 10.000000 2.000000
	vertex 0.000000 0.000000 0.000000
	endloop
endfacet
facet normal 20.000000 -46.000000 120.000000
outer loop
	vertex 11.000000 10.000000 2.000000
	vertex -12.000000 0.000000 2.000000
	vertex 0.000000 0.000000 0.000000
	endloop
endfacet
endsolid object
endsolid object