solid object
solid object
facet normal 0.000000 -0.000000 -128.000000
outer loop
	vertex -8.000000 -8.000000 0.000000
	vertex -8.000000 8.000000 0.000000
	vertex 0.000000 0.000000 0.000000
	endloop
endfacet
facet normal 0.000000 -0.000000 -128.000000
outer loop
	vertex -8.000000 8.000000 0.000000
	vertex 8.000000 8.000000 0.000000
	vertex 0.000000 0.000000 0.000000
	endloop
endfacet
facet normal 0.000000 -0.000000 -128.000000
outer loop
	vertex 8.000000 8.000000 0.000000
	vertex 8.000000 -8.000000 0.000000
	vertex 0.000000 0.000000 0.000000
	endloop
endfacet
facet normal 0.000000 -0.000000 -128.000000
outer loop
	vertex 8.000000 -8.000000 0.000000
	vertex -8.000000 -8.000000 0.000000
	vertex 0.000000 0.000000 0.000000
	endloop
endfacet
facet normal -16.000000 -0.000000 0.000000
outer loop
	vertex -8.000000 8.000000 0.000000
	vertex -8.000000 -8.000000 0.000000
	vertex -8.000000 -8.000000 1.000000
	endloop
endfacet
facet normal -16.000000 -0.000000 0.000000
outer loop
	vertex -8.000000 8.000000 0.000000
	vertex -8.000000 -8.000000 1.000000
	vertex -8.000000 8.000000 1.000000
	endloop
endfacet
facet normal 0.000000 16.000000 0.000000
outer loop
	vertex 8.000000 8.000000 0.000000
	vertex -8.000000 8.000000 0.000000
	vertex -8.000000 8.000000 1.000000
	endloop
endfacet
facet normal 0.000000 16.000000 -0.000000
outer loop
	vertex 8.000000 8.000000 0.000000
	vertex -8.000000 8.000000 1.000000
	vertex 8.000000 8.000000 1.000000
	endloop
endfacet
facet normal 16.000000 -0.000000 0.000000
outer loop
	vertex 8.000000 -8.000000 0.000000
	vertex 8.000000 8.000000 0.000000
	vertex 8.000000 8.000000 1.000000
	endloop
endfacet
facet normal 16.000000 -0.000000 0.000000
outer loop
	vertex 8.000000 -8.000000 0.000000
	vertex 8.000000 8.000000 1.000000
	vertex 8.000000 -8.000000 1.000000
	endloop
endfacet
facet normal 0.000000 -16.000000 0.000000
outer loop
	vertex -8.000000 -8.000000 0.000000
	vertex 8.000000 -8.000000 0.000000
	vertex 8.000000 -8.000000 1.000000
	endloop
endfacet
facet normal 0.000000 -16.000000 0.000000
outer loop
	vertex -8.000000 -8.000000 0.000000
	vertex 8.000000 -8.000000 1.000000
	vertex -8.000000 -8.000000 1.000000
	endloop
endfacet
facet normal -16.000000 -0.000000 16.000000
outer loop
	vertex -8.000000 8.000000 1.000000
	vertex -8.000000 -8.000000 1.000000
	vertex -7.000000 -7.000000 2.000000
	endloop
endfacet
facet normal -14.000000 -0.000000 14.000000
outer loop
	vertex -8.000000 8.000000 1.000000
	vertex -7.000000 -7.000000 2.000000
	vertex -7.000000 7.000000 2.000000
	endloop
endfacet
facet normal 0.000000 16.000000 16.000000
outer loop
	vertex 8.000000 8.000000 1.000000
	vertex -8.000000 8.000000 1.000000
	vertex -7.000000 7.000000 2.000000
	endloop
endfacet
facet normal 0.000000 14.000000 14.000000
outer loop
	vertex 8.000000 8.000000 1.000000
	vertex -7.000000 7.000000 2.000000
	vertex 7.000000 7.000000 2.000000
	endloop
endfacet
facet normal 16.000000 -0.000000 16.000000
outer loop
	vertex 8.000000 -8.000000 1.000000
	vertex 8.000000 8.000000 1.000000
	vertex 7.000000 7.000000 2.000000
	endloop
endfacet
facet normal 14.000000 -0.000000 14.000000
outer loop
	vertex 8.000000 -8.000000 1.000000
	vertex 7.000000 7.000000 2.000000
	vertex 7.000000 -7.000000 2.000000
	endloop
endfacet
facet normal 0.000000 -16.000000 16.000000
outer loop
	vertex -8.000000 -8.000000 1.000000
	vertex 8.000000 -8.000000 1.000000
	vertex 7.000000 -7.000000 2.000000
	endloop
endfacet
facet normal 0.000000 -14.000000 14.000000
outer loop
	vertex -8.000000 -8.000000 1.000000
	vertex 7.000000 -7.000000 2.000000
	vertex -7.000000 -7.000000 2.000000
	endloop
endfacet
facet normal -14.000000 -0.000000 14.000000
outer loop
	vertex -7.000000 7.000000 2.000000
	vertex -7.000000 -7.000000 2.000000
	vertex -6.000000 -6.000000 3.000000
	endloop
endfacet
facet normal -12.000000 -0.000000 12.000000
outer loop
	vertex -7.000000 7.000000 2.000000
	vertex -6.000000 -6.000000 3.000000
	vertex -6.000000 6.000000 3.000000
	endloop
endfacet
facet normal 0.000000 14.000000 14.000000
outer loop
	vertex 7.000000 7.000000 2.000000
	vertex -7.000000 7.000000 2.000000
	vertex -6.000000 6.000000 3.000000
	endloop
endfacet
facet normal 0.000000 12.000000 12.000000
outer loop
	vertex 7.000000 7.000000 2.000000
	vertex -6.000000 6.000000 3.000000
	vertex 6.000000 6.000000 3.000000
	endloop
endfacet
facet normal 14.000000 -0.000000 14.000000
outer loop
	vertex 7.000000 -7.000000 2.000000
	vertex 7.000000 7.000000 2.000000
	vertex 6.000000 6.000000 3.000000
	endloop
endfacet
facet normal 12.000000 -0.000000 12.000000
outer loop
	vertex 7.000000 -7.000000 2.000000
	vertex 6.000000 6.000000 3.000000
	vertex 6.000000 -6.000000 3.000000
	endloop
endfacet
facet normal 0.000000 -14.000000 14.000000
outer loop
	vertex -7.000000 -7.000000 2.000000
	vertex 7.000000 -7.000000 2.000000
	vertex 6.000000 -6.000000 3.000000
	endloop
endfacet
facet normal 0.000000 -12.000000 12.000000
outer loop
	vertex -7.000000 -7.000000 2.000000
	vertex 6.000000 -6.000000 3.000000
	vertex -6.000000 -6.000000 3.000000
	endloop
endfacet
facet normal -12.000000 -0.000000 -24.000000
outer loop
	vertex -6.000000 6.000000 3.000000
	vertex -6.000000 -6.000000 3.000000
	vertex -8.000000 -8.000000 4.000000
	endloop
endfacet
facet normal -16.000000 -0.000000 -32.000000
outer loop
	vertex -6.000000 6.000000 3.000000
	vertex -8.000000 -8.000000 4.000000
	vertex -8.000000 8.000000 4.000000
	endloop
endfacet
facet normal 0.000000 12.000000 -24.000000
outer loop
	vertex 6.000000 6.000000 3.000000
	vertex -6.000000 6.000000 3.000000
	vertex -8.000000 8.000000 4.000000
	endloop
endfacet
facet normal 0.000000 16.000000 -32.000000
outer loop
	vertex 6.000000 6.000000 3.000000
	vertex -8.000000 8.000000 4.000000
	vertex 8.000000 8.000000 4.000000
	endloop
endfacet
facet normal 12.000000 -0.000000 -24.000000
outer loop
	vertex 6.000000 -6.000000 3.000000
	vertex 6.000000 6.000000 3.000000
	vertex 8.000000 8.000000 4.000000
	endloop
endfacet
facet normal 16.000000 -0.000000 -32.000000
outer loop
	vertex 6.000000 -6.000000 3.000000
	vertex 8.000000 8.000000 4.000000
	vertex 8.000000 -8.000000 4.000000
	endloop
endfacet
facet normal 0.000000 -12.000000 -24.000000
outer loop
	vertex -6.000000 -6.000000 3.000000
	vertex 6.000000 -6.000000 3.000000
	vertex 8.000000 -8.000000 4.000000
	endloop
endfacet
facet normal 0.000000 -16.000000 -32.000000
outer loop
	vertex -6.000000 -6.000000 3.000000
	vertex 8.000000 -8.000000 4.000000
	vertex -8.000000 -8.000000 4.000000
	endloop
endfacet
facet normal 0.000000 -0.000000 128.000000
outer loop
	vertex -8.000000 8.000000 4.000000
	vertex -8.000000 -8.000000 4.000000
	vertex 0.000000 0.000000 4.000000
	endloop
endfacet
facet normal 0.000000 -0.000000 128.000000
outer loop
	vertex 8.000000 8.000000 4.000000
	vertex -8.000000 8.000000 4.000000
	vertex 0.000000 0.000000 4.000000
	endloop
endfacet
facet normal 0.000000 -0.000000 128.000000
outer loop
	vertex 8.000000 -8.000000 4.000000
	vertex 8.000000 8.000000 4.000000
	vertex 0.000000 0.000000 4.000000
	endloop
endfacet
facet normal 0.000000 -0.000000 128.000000
outer loop
	vertex -8.000000 -8.000000 4.000000
	vertex 8.000000 -8.000000 4.000000
	vertex 0.000000 0.000000 4.000000
	endloop
endfacet
endsolid object
endsolid object